Coordinates
version=1
nRows=17
nColumns=24
inDegrees=yes

Units are S.I. units (second, meters, Newtons, ...)
Angles are in degrees.

endheader
time	pelvis_tilt	pelvis_list	pelvis_rotation	pelvis_tx	pelvis_ty	pelvis_tz	hip_flexion_r	hip_adduction_r	hip_rotation_r	knee_angle_r	ankle_angle_r	subtalar_angle_r	mtp_angle_r	hip_flexion_l	hip_adduction_l	hip_rotation_l	knee_angle_l	ankle_angle_l	subtalar_angle_l	mtp_angle_l	lumbar_extension	lumbar_bending	lumbar_rotation
      1.12116667	     -0.61120160	     -3.30287274	      6.16069082	      0.51530017	      1.02699640	      0.30361499	     12.61744780	     10.08331667	      1.57870516	    -21.49297737	      5.01913046	    -14.82606861	      7.35842057	     14.66205586	     -6.49880574	     -0.95884075	    -58.26046698	     10.28934633	      0.29903994	      1.84657102	     -0.53629523	     -0.06510536	     -2.72031240
      1.12533333	     -0.55167250	     -3.25702876	      5.98926790	      0.51962468	      1.02758458	      0.30399954	     12.13110507	     10.11139827	      1.77218102	    -21.21108729	      5.08073175	    -14.81818586	      7.27160155	     15.12238890	     -6.41785811	     -1.01011408	    -57.80529435	     10.54262386	      0.08091298	      1.80313835	     -0.69052506	     -0.12245043	     -2.43470289
      1.12950000	     -0.52914177	     -3.22173890	      5.83285260	      0.52394510	      1.02806312	      0.30433589	     11.70000532	     10.13257033	      1.90533599	    -20.95424067	      5.16451070	    -14.76258925	      7.24874535	     15.62360815	     -6.34304579	     -1.04972231	    -57.33685007	     10.83673811	     -0.11041228	      1.79197527	     -0.76134248	     -0.16264230	     -2.36722299
      1.13366667	     -0.49982895	     -3.17445484	      5.67135662	      0.52826043	      1.02854546	      0.30467282	     11.25991602	     10.14082542	      2.05439726	    -20.69889404	      5.25932997	    -14.70715251	      7.22132824	     16.09880621	     -6.25598077	     -1.09314344	    -56.82128594	     11.07669726	     -0.32151906	      1.77364058	     -0.85792918	     -0.21947369	     -2.24599238
      1.13783333	     -0.43970643	     -3.11438196	      5.50316148	      0.53253645	      1.02906009	      0.30500110	     10.79291850	     10.13653372	      2.21763469	    -20.45856800	      5.36061733	    -14.64317258	      7.16661365	     16.52270080	     -6.15496941	     -1.13429918	    -56.25795200	     11.23391274	     -0.56337026	      1.73003186	     -1.03845172	     -0.27463276	     -2.00874773
      1.14200000	     -0.39543917	     -3.08023483	      5.35811242	      0.53684232	      1.02950874	      0.30528811	     10.33930257	     10.14911712	      2.34003427	    -20.20119375	      5.46467089	    -14.56240505	      7.09619531	     16.96416115	     -6.08121271	     -1.15730943	    -55.67751867	     11.39121856	     -0.76014694	      1.67008316	     -1.13970418	     -0.32625249	     -1.80829716
      1.14616667	     -0.38847995	     -3.06155203	      5.21024721	      0.54114715	      1.02985198	      0.30556274	      9.93597108	     10.17170201	      2.45761027	    -19.96036649	      5.56373198	    -14.49181432	      7.07217754	     17.44119332	     -6.02546878	     -1.18683892	    -55.08261219	     11.58453852	     -0.92759442	      1.64742415	     -1.18903445	     -0.34574015	     -1.74374896
      1.15033333	     -0.34447480	     -3.00923358	      5.04875795	      0.54540878	      1.03025687	      0.30583429	      9.49715401	     10.16166636	      2.60426673	    -19.73795649	      5.68961025	    -14.40289207	      7.02123575	     17.85057024	     -5.92993081	     -1.21742111	    -54.42636655	     11.67129748	     -1.16921107	      1.59362882	     -1.33937290	     -0.39462100	     -1.57008606
      1.15450000	     -0.31849327	     -2.97716204	      4.90665261	      0.54970661	      1.03059870	      0.30606762	      9.07712132	     10.16326740	      2.70655876	    -19.50907448	      5.81656641	    -14.29031634	      6.93753192	     18.27438920	     -5.85236554	     -1.22795541	    -53.74924604	     11.74315440	     -1.37935699	      1.50615661	     -1.41982463	     -0.43837030	     -1.37675431
      1.15866667	     -0.31916963	     -2.93720424	      4.74319300	      0.55397819	      1.03086422	      0.30632615	      8.69728721	     10.15720178	      2.84721313	    -19.30751263	      5.95229927	    -14.20102425	      6.88268373	     18.71252843	     -5.77225947	     -1.26229786	    -53.04571928	     11.82272609	     -1.58946963	      1.44372320	     -1.49290026	     -0.47753590	     -1.27341616
      1.16283333	     -0.30015087	     -2.91646033	      4.58846349	      0.55826166	      1.03113198	      0.30655268	      8.29260784	     10.16919640	      2.97666722	    -19.09247558	      6.08046576	    -14.10497516	      6.83110289	     19.12038870	     -5.71370817	     -1.28566657	    -52.31646216	     11.87525280	     -1.79600586	      1.38223950	     -1.57592898	     -0.49768953	     -1.15250872
      1.16700000	     -0.28666753	     -2.88694841	      4.43198521	      0.56253717	      1.03136244	      0.30677284	      7.90016323	     10.16900110	      3.10505761	    -18.89229465	      6.21521416	    -14.01084421	      6.78098956	     19.51927343	     -5.64404468	     -1.30589695	    -51.55535029	     11.89971952	     -2.00299479	      1.31923149	     -1.65610951	     -0.52809457	     -1.02862779
      1.17116667	     -0.27946276	     -2.85875638	      4.28397335	      0.56683807	      1.03157800	      0.30696058	      7.51191550	     10.16337431	      3.21011765	    -18.68618379	      6.35213035	    -13.89931255	      6.69632135	     19.90831868	     -5.56936351	     -1.30955663	    -50.75682717	     11.87978219	     -2.24156057	      1.21611548	     -1.70877763	     -0.56310847	     -0.85508920
      1.17533333	     -0.27257377	     -2.82914980	      4.10021284	      0.57112484	      1.03175632	      0.30720703	      7.13232454	     10.16487830	      3.38456915	    -18.50498881	      6.49263256	    -13.81943334	      6.65019908	     20.27901674	     -5.51251074	     -1.35862342	    -49.93603772	     11.87717637	     -2.44349527	      1.15407081	     -1.78844724	     -0.58962024	     -0.76440064
      1.17950000	     -0.28005915	     -2.80454302	      3.93141727	      0.57541226	      1.03187994	      0.30741535	      6.77054884	     10.16393053	      3.53080213	    -18.32241338	      6.62709749	    -13.73566191	      6.59909322	     20.65700977	     -5.45003037	     -1.37804848	    -49.08998810	     11.83125634	     -2.68017782	      1.08400905	     -1.83925617	     -0.61627290	     -0.63439546
      1.18366667	     -0.25215674	     -2.77226777	      3.76895126	      0.57973009	      1.03206644	      0.30759358	      6.36470917	     10.15101102	      3.65738369	    -18.13039382	      6.75920980	    -13.63732027	      6.51885157	     20.97212039	     -5.37535877	     -1.38144818	    -48.19854582	     11.75210096	     -2.94148413	      0.97796952	     -1.91803881	     -0.64932819	     -0.45652737
      1.18783333	     -0.26762704	     -2.75686889	      3.57546506	      0.58405897	      1.03212746	      0.30785051	      6.00872030	     10.16269634	      3.84804662	    -17.94907563	      6.89975046	    -13.56632554	      6.48774232	     21.32826752	     -5.34728591	     -1.44885121	    -47.31093911	     11.71137496	     -3.11839421	      0.92889150	     -1.93899439	     -0.68003152	     -0.38807830
